<?xml version="1.0" encoding="UTF-8"?>
<svg xmlns="http://www.w3.org/2000/svg" width="124" height="43" viewBox="0 0 124 43" fill="none">
  <g clip-path="url(#clip0_1561_17932)">
    <path d="M10.7489 12.8721L13.4052 5.44717C13.9784 3.84358 14.9897 2.4645 16.3058 1.49167C17.6219 0.51884 19.181 -0.00208122 20.7778 -0.00244141L42.9456 -0.00244141C43.5685 0.000596218 44.1814 0.166779 44.7312 0.48175C45.2811 0.796721 45.7514 1.25101 46.1015 1.80536C46.4517 2.35971 46.6711 2.99746 46.7409 3.66351C46.8107 4.32956 46.7287 5.00387 46.502 5.62819L43.8458 12.8721H10.7489ZM9.93142 15.1618L5.34496 27.9951H32.055C33.9894 27.8163 35.8392 27.061 37.3969 25.814C38.9546 24.567 40.1586 22.8776 40.8738 20.9354L42.9958 15.1618H9.93142ZM4.52743 30.2817L0 42.9466H9.72187C10.8461 42.9465 11.9439 42.5803 12.8711 41.8961C13.7982 41.2119 14.5112 40.2419 14.9163 39.1135L18.089 30.2817H4.52743Z" fill="url(#paint0_linear_1561_17932)"></path>
    <path d="M68.9118 8.93164C70.6827 8.93164 72.6188 9.19205 74.2243 10.7291C75.9568 12.3615 76.1988 14.521 76.1988 16.0231C76.1988 18.767 75.2278 20.3041 74.4663 21.1552C72.8578 22.9177 70.7328 23.0829 69.3044 23.0829H66.4504V30.7301H61.7754V8.93164H68.9118ZM66.4533 18.9639H68.1238C68.7613 18.9639 69.8946 18.9321 70.6443 18.1477C71.1508 17.5642 71.4233 16.7895 71.4028 15.9914C71.4171 15.6004 71.3572 15.2103 71.2268 14.845C71.0964 14.4798 70.8982 14.1469 70.6443 13.8668C69.9448 13.1459 68.9443 13.0506 68.0323 13.0506H66.4533V18.9639Z" fill="white"></path>
    <path d="M80.2127 7.20132C80.7169 7.20195 81.2097 7.36341 81.6286 7.66529C82.0476 7.96717 82.374 8.39592 82.5665 8.89735C82.7591 9.39878 82.8091 9.95038 82.7104 10.4824C82.6117 11.0145 82.3686 11.5031 82.0118 11.8865C81.6551 12.2699 81.2007 12.5309 80.7062 12.6366C80.2116 12.7422 79.699 12.6876 79.2333 12.4799C78.7675 12.2721 78.3694 11.9204 78.0893 11.4693C77.8093 11.0181 77.6598 10.4877 77.6598 9.94519C77.6566 9.58364 77.7205 9.22505 77.8477 8.89041C77.975 8.55577 78.1629 8.25179 78.4007 7.99628C78.6384 7.74076 78.9211 7.53885 79.2323 7.40235C79.5434 7.26585 79.8767 7.19751 80.2127 7.20132ZM82.3967 16.1538V30.7306H78.0257V16.1538H82.3967Z" fill="white"></path>
    <path d="M91.0829 22.786L85.7084 16.1519H91.2954L93.8188 19.5182L96.3393 16.1519H101.926L96.5518 22.786L103.172 30.7254H97.5228L93.8188 26.038L90.1119 30.7286H84.4629L91.0829 22.786Z" fill="white"></path>
    <path d="M107.431 7.20132C107.936 7.20132 108.429 7.36225 108.848 7.66375C109.268 7.96525 109.594 8.39378 109.787 8.89516C109.98 9.39653 110.031 9.94823 109.932 10.4805C109.834 11.0127 109.591 11.5017 109.235 11.8854C108.878 12.2691 108.424 12.5305 107.929 12.6363C107.434 12.7422 106.922 12.6879 106.456 12.4802C105.99 12.2725 105.591 11.9208 105.311 11.4696C105.031 11.0184 104.881 10.4879 104.881 9.94519C104.878 9.58379 104.941 9.22528 105.068 8.89065C105.195 8.55602 105.383 8.25202 105.62 7.99646C105.858 7.7409 106.14 7.53893 106.451 7.4024C106.762 7.26586 107.096 7.1975 107.431 7.20132ZM109.618 16.1538V30.7306H105.239V16.1538H109.618Z" fill="white"></path>
    <path d="M121.596 19.8796C120.878 19.3913 120.057 19.1072 119.209 19.0539C118.759 19.0274 118.316 19.1788 117.963 19.4794C117.8 19.6533 117.702 19.8865 117.689 20.1336C117.697 20.2738 117.741 20.4089 117.816 20.5239C117.891 20.6388 117.994 20.7291 118.114 20.7847C118.535 20.9896 118.973 21.1544 119.421 21.2769L120.575 21.6675C121.402 21.9068 122.169 22.3407 122.821 22.9378C123.18 23.2851 123.462 23.7149 123.646 24.1954C123.83 24.6759 123.911 25.1947 123.884 25.7134C123.898 26.4166 123.782 27.1159 123.543 27.7703C123.303 28.4246 122.944 29.021 122.488 29.5244C121.151 30.963 119.513 31.1916 118.084 31.1916C116.26 31.1916 114.289 30.7661 112.527 29.102L114.377 25.9262C114.827 26.3487 115.323 26.7112 115.853 27.006C116.419 27.3079 117.042 27.4644 117.674 27.4633C117.949 27.4633 118.645 27.4633 119.041 27.1457C119.178 27.0339 119.291 26.8903 119.37 26.7254C119.449 26.5605 119.493 26.3785 119.498 26.193C119.498 26.0165 119.453 25.8435 119.367 25.6932C119.281 25.5429 119.158 25.4213 119.011 25.3419C118.587 25.1085 118.138 24.9335 117.674 24.8211L116.582 24.459C115.765 24.2052 115.015 23.7458 114.395 23.1188C114.074 22.7725 113.822 22.3592 113.654 21.9043C113.487 21.4494 113.407 20.9625 113.421 20.4734C113.416 19.851 113.531 19.2343 113.759 18.662C113.986 18.0898 114.322 17.5744 114.743 17.1484C115.959 15.9384 117.597 15.678 118.843 15.678C120.419 15.6386 121.974 16.0683 123.338 16.9197L121.596 19.8796Z" fill="white"></path>
  </g>
  <defs>
    <linearGradient id="paint0_linear_1561_17932" x1="23.3868" y1="-1.65384" x2="23.3868" y2="44.579" gradientUnits="userSpaceOnUse">
      <stop stop-color="#2BB3F4"></stop>
      <stop offset="1" stop-color="#3F64FA"></stop>
    </linearGradient>
    <clipPath id="clip0_1561_17932">
      <rect width="123.884" height="42.9491" fill="white"></rect>
    </clipPath>
  </defs>
</svg>
